<svg width="223" height="223" viewBox="0 0 223 223" fill="none" xmlns="http://www.w3.org/2000/svg">
<path d="M0.415776 130.477C0.143994 129.817 0.00279367 129.111 5.05358e-06 128.398V5.66962C-0.000990036 4.92479 0.14498 4.18709 0.429552 3.49877C0.714124 2.81045 1.13171 2.18505 1.65838 1.65838C2.18505 1.13171 2.81045 0.714124 3.49877 0.429552C4.18709 0.14498 4.92479 -0.000990036 5.66962 5.05358e-06H50.1572C51.6597 0.00433155 53.0997 0.602075 54.1637 1.66309L93.284 40.7834C93.8112 41.309 94.2294 41.9334 94.5148 42.6209C94.8002 43.3085 94.9471 44.0455 94.9471 44.7899C94.9471 45.5343 94.8002 46.2714 94.5148 46.9589C94.2294 47.6464 93.8112 48.2709 93.284 48.7965L9.67614 132.404C9.00818 133.058 8.18947 133.538 7.29228 133.801C6.39509 134.063 5.44703 134.101 4.53179 133.91C3.61656 133.72 2.76231 133.307 2.04447 132.708C1.32662 132.109 0.767264 131.343 0.415776 130.477Z" fill="#F58800"/>
<path d="M223.005 5.66962V50.1572C222.983 50.893 222.843 51.6205 222.589 52.3116C222.29 53 221.867 53.6277 221.342 54.1637L182.222 93.284C181.155 94.3392 179.715 94.9311 178.215 94.9311C176.715 94.9311 175.275 94.3392 174.209 93.284L90.6007 9.67614C89.9525 9.00975 89.4762 8.19559 89.2129 7.30396C88.9497 6.41234 88.9074 5.47004 89.0898 4.55844C89.2722 3.64683 89.6737 2.7933 90.2596 2.07155C90.8456 1.34981 91.5984 0.781525 92.4531 0.415776C93.1439 0.161085 93.8716 0.0206551 94.6076 5.05358e-06H217.335C218.08 -0.000990036 218.818 0.14498 219.506 0.429552C220.195 0.714124 220.82 1.13171 221.347 1.65838C221.873 2.18505 222.291 2.81045 222.575 3.49877C222.86 4.18709 223.006 4.92479 223.005 5.66962Z" fill="#F58800"/>
<path d="M222.59 92.5278C222.862 93.1873 223.003 93.8933 223.006 94.6067V217.335C223.007 218.08 222.861 218.817 222.576 219.506C222.292 220.194 221.874 220.819 221.347 221.346C220.821 221.873 220.195 222.29 219.507 222.575C218.819 222.859 218.081 223.005 217.336 223.004H172.849C171.346 223 169.906 222.402 168.842 221.341L129.722 182.221C129.195 181.695 128.776 181.071 128.491 180.384C128.205 179.696 128.059 178.959 128.059 178.215C128.059 177.47 128.205 176.733 128.491 176.046C128.776 175.358 129.195 174.734 129.722 174.208L213.33 90.6001C213.998 89.9461 214.816 89.4666 215.713 89.204C216.611 88.9413 217.559 88.9036 218.474 89.0941C219.389 89.2846 220.243 89.6975 220.961 90.2964C221.679 90.8952 222.238 91.6616 222.59 92.5278Z" fill="#F58800"/>
<path d="M63.0113 107.499L107.498 63.0114C108.566 61.9579 110.005 61.3672 111.505 61.3672C113.005 61.3672 114.444 61.9579 115.511 63.0114L159.999 107.499C161.052 108.566 161.643 110.005 161.643 111.505C161.643 113.005 161.052 114.444 159.999 115.511L115.511 159.999C114.439 161.043 113.002 161.628 111.505 161.628C110.008 161.628 108.57 161.043 107.498 159.999L63.0113 115.511C61.9578 114.444 61.3672 113.005 61.3672 111.505C61.3672 110.005 61.9578 108.566 63.0113 107.499Z" fill="#F58800"/>
<path d="M133.652 215.256C133.984 216.114 134.103 217.04 133.998 217.954C133.894 218.869 133.57 219.744 133.054 220.506C132.537 221.268 131.844 221.893 131.033 222.328C130.222 222.763 129.318 222.995 128.398 223.004H5.66962C4.92479 223.005 4.18709 222.859 3.49877 222.575C2.81045 222.29 2.18505 221.873 1.65838 221.346C1.13171 220.819 0.714124 220.194 0.429552 219.506C0.14498 218.817 -0.000990036 218.08 5.05358e-06 217.335V172.847C0.0217965 172.111 0.162191 171.384 0.415776 170.693C0.715021 170.004 1.13776 169.377 1.66309 168.841L40.7834 129.72C41.8682 128.701 43.3011 128.133 44.7899 128.133C46.2788 128.133 47.7116 128.701 48.7965 129.72L132.404 213.328C132.968 213.862 133.395 214.523 133.652 215.256Z" fill="#F58800"/>
</svg>
